<svg width="32" height="30" viewBox="0 0 32 30" fill="none" xmlns="http://www.w3.org/2000/svg">
<path d="M17.0781 1H5.54214C3.03575 1 1 3.03575 1 5.54214V12.3827C1 14.7578 2.83875 16.695 5.15907 16.892C5.01678 18.7745 3.67056 20.2193 3.67056 20.2193C6.65852 20.2193 8.57388 17.8442 9.20868 16.9248H17.0781C19.5845 16.9248 21.6202 14.8891 21.6202 12.3827V5.54214C21.6202 3.03575 19.5845 1 17.0781 1Z" stroke="#00467F" stroke-miterlimit="10"/>
<path d="M21.6202 9.52637H26.4579C28.9643 9.52637 31 11.5621 31 14.0685V20.9091C31 23.2841 29.1613 25.2214 26.841 25.4184C26.9833 27.3009 28.3295 28.7456 28.3295 28.7456C25.3415 28.7456 23.4262 26.3706 22.7914 25.4512H14.922C12.4156 25.4512 10.3798 23.4155 10.3798 20.9091V16.7719" stroke="#00467F" stroke-miterlimit="10"/>
</svg>
