<svg width="100" height="100" viewBox="0 0 100 100" fill="none" xmlns="http://www.w3.org/2000/svg">
<circle cx="50" cy="50" r="50" fill="url(#paint0_linear)"/>
<mask id="mask0" mask-type="alpha" maskUnits="userSpaceOnUse" x="0" y="0" width="100" height="100">
<circle cx="50" cy="50" r="50" fill="#C6FFF1"/>
</mask>
<g mask="url(#mask0)">
<circle cx="95" cy="11" r="64" fill="url(#paint1_radial)"/>
<circle cx="9" cy="19" r="82" fill="url(#paint2_radial)"/>
<circle cx="19" cy="3" r="82" fill="url(#paint3_radial)"/>
<circle cx="33" cy="108" r="72" fill="url(#paint4_radial)"/>
</g>
<path d="M72.1586 55.8827C72.1586 56.0878 72.1478 57.5344 70.7764 57.5344C69.4158 57.5344 69.3942 56.0986 69.3942 55.8827V52.439H68.8759V55.8071C68.8759 56.2389 68.9191 57.9662 70.7764 57.9662C72.6337 57.9662 72.6769 56.2497 72.6769 55.8071V52.439H72.1586V55.8827Z" fill="white"/>
<path d="M67.526 23.4533C67.094 23.259 66.5757 23.1619 65.971 23.1619H65.0639H64.4484H63.4873V30.8481H65.0639V28.0521H65.971C66.5757 28.0521 67.094 27.955 67.526 27.7607C67.9579 27.5664 68.2819 27.2857 68.5086 26.9186C68.7354 26.5516 68.8434 26.1198 68.8434 25.6124C68.8434 25.105 68.7354 24.6732 68.5086 24.2954C68.2819 23.9283 67.9579 23.6477 67.526 23.4533ZM67.148 26.2277C67.04 26.3897 66.8888 26.5192 66.6837 26.5948C66.4893 26.6703 66.2517 26.7135 65.971 26.7135H65.0639V24.4897H65.971C66.2517 24.4897 66.4893 24.5329 66.6837 24.6192C66.878 24.7056 67.04 24.8351 67.148 24.9971C67.256 25.159 67.31 25.3641 67.31 25.6016C67.3208 25.8499 67.2668 26.055 67.148 26.2277Z" fill="white"/>
<path d="M67.9688 53.8853C67.9688 52.5251 66.7594 52.4387 66.4462 52.4387H65.01V57.804H65.5283V55.3319H65.7227L67.5585 57.804H68.174L66.2734 55.3319C67.6017 55.2455 67.9688 54.5438 67.9688 53.8853ZM65.5283 54.9109V52.8705H66.187C66.8134 52.8705 67.4289 53.0001 67.4289 53.8853C67.4289 54.3171 67.2669 54.9001 66.0683 54.9001H65.5283V54.9109Z" fill="white"/>
<path d="M67.5908 64.2597C67.5368 65.8035 67.472 67.4012 66.8673 68.729C66.187 70.3375 64.6212 71.2551 62.0619 71.525C62.0295 71.5358 61.468 71.5682 60.9173 71.525C60.9173 71.4494 60.9173 39.4413 60.9173 39.3657C60.9929 39.3657 63.239 39.3657 63.239 39.3657V38.9231H63.1958H54.8809V39.3657C54.8809 39.3657 57.1378 39.3657 57.1594 39.3657C57.1594 39.4413 57.1594 71.4494 57.1594 71.525C57.0838 71.525 54.8485 71.525 54.8485 71.525V72H67.8715V63.4501H67.6124L67.5908 64.2597Z" fill="white"/>
<path d="M56.5763 30.7403C57.073 30.9454 57.6129 31.0425 58.2069 31.0425C58.8008 31.0425 59.3407 30.9454 59.8374 30.7403C60.3342 30.5351 60.7553 30.2545 61.1225 29.8982C61.4896 29.5312 61.7704 29.1102 61.9647 28.6136C62.1699 28.117 62.2671 27.588 62.2671 27.0051C62.2671 26.4221 62.1699 25.8824 61.9647 25.3966C61.7596 24.9108 61.4788 24.4898 61.1117 24.1335C60.7445 23.7773 60.3126 23.4966 59.8158 23.3023C59.3191 23.0972 58.7792 23 58.1961 23C57.6237 23 57.0946 23.0972 56.5979 23.2915C56.1011 23.4858 55.6692 23.7665 55.302 24.1227C54.9349 24.479 54.6433 24.9 54.449 25.3858C54.2438 25.8716 54.1466 26.4113 54.1466 26.9943C54.1466 27.5772 54.2438 28.1062 54.4382 28.6028C54.6325 29.0994 54.9133 29.5204 55.2805 29.8874C55.6476 30.2545 56.0687 30.5351 56.5763 30.7403ZM55.9716 25.9903C56.0903 25.688 56.2523 25.4182 56.4683 25.1915C56.6843 24.9648 56.9434 24.792 57.235 24.6625C57.5265 24.5329 57.8505 24.4682 58.2176 24.4682C58.574 24.4682 58.898 24.5329 59.2003 24.6625C59.4919 24.792 59.751 24.9648 59.9562 25.1915C60.1722 25.4182 60.3342 25.6772 60.4421 25.9903C60.5393 26.3034 60.5933 26.638 60.5933 26.9943C60.5933 27.3613 60.5393 27.696 60.4205 28.009C60.3018 28.3221 60.1398 28.5812 59.9238 28.8079C59.7078 29.0346 59.4487 29.2073 59.1571 29.3369C58.8656 29.4664 58.5416 29.5312 58.1853 29.5312C57.8289 29.5312 57.5157 29.4664 57.2134 29.3369C56.9218 29.2073 56.6627 29.0346 56.4467 28.8079C56.2307 28.5812 56.0687 28.3221 55.95 28.009C55.8312 27.696 55.7772 27.3613 55.7772 27.0051C55.7988 26.6272 55.8636 26.2926 55.9716 25.9903Z" fill="white"/>
<path d="M87.7085 64.2921C87.6545 65.8358 87.5897 67.4335 86.985 68.7613C86.0995 70.8664 83.821 71.3414 82.1797 71.5141C82.1473 71.5141 81.5857 71.5573 81.035 71.5141C81.035 71.4386 81.035 55.6126 81.035 55.5478C81.5641 55.5371 82.4064 55.6018 82.6116 55.6558C83.4215 55.8285 84.145 56.649 84.3718 57.3507C84.7173 58.4194 84.7497 59.5745 84.7713 60.8052L84.7929 61.4961H85.0629V49.3189H84.7929L84.7713 50.0098C84.7497 51.2405 84.7173 52.4064 84.3718 53.4644C84.1126 54.2632 83.3459 54.9757 82.6116 55.1376C82.4172 55.1916 81.5857 55.2672 81.035 55.2564C81.035 55.1808 81.035 39.506 81.035 39.4304C81.5857 39.3872 82.1473 39.4304 82.1797 39.4304C83.8858 39.6139 86.0887 40.2725 86.985 42.3991C87.5897 43.727 87.6437 45.3247 87.7085 46.8684L87.7409 47.6781H87.9893V38.9338H75.0094V38.977V39.4088H77.2231C77.2231 39.4088 77.2555 39.4196 77.2879 39.4304C77.2879 39.4952 77.2879 71.4494 77.2879 71.5249C77.2123 71.5249 74.9771 71.5249 74.9771 71.5249V72.0107H88.0001V63.4824H87.7409L87.7085 64.2921Z" fill="white"/>
<path d="M52.0301 26.4005C51.6414 26.2062 51.1878 26.109 50.6911 26.109H49.2441V24.4897H52.7104V23.1511H47.6351V30.8374H48.1535H49.2441H50.6911C51.1878 30.8374 51.6306 30.7402 52.0301 30.5459C52.4189 30.3516 52.732 30.0709 52.9588 29.7147C53.1856 29.3584 53.3044 28.9374 53.3044 28.4732C53.3044 27.9982 53.1856 27.588 52.9588 27.2318C52.732 26.8755 52.4189 26.6056 52.0301 26.4005ZM51.5442 29.0454C51.4362 29.1965 51.2958 29.3153 51.1015 29.3908C50.9071 29.4664 50.6803 29.5096 50.4104 29.5096H49.2441V27.4153H50.4104C50.6695 27.4153 50.9071 27.4585 51.1015 27.534C51.2958 27.6096 51.447 27.7283 51.5442 27.8903C51.6414 28.0522 51.6954 28.2357 51.6954 28.4624C51.6954 28.6891 51.6414 28.8834 51.5442 29.0454Z" fill="white"/>
<path d="M24.7315 64.2813C24.6775 65.8251 24.6127 67.4228 24.008 68.7506C23.1225 70.8557 20.844 71.3307 19.2026 71.5034C19.1702 71.5034 18.6087 71.5466 18.058 71.5034C18.058 71.4278 18.058 55.6127 18.058 55.5371C18.5871 55.5263 19.4294 55.5911 19.6346 55.6451C20.4444 55.8178 21.1679 56.6382 21.4055 57.3399C21.7619 58.4087 21.7835 59.5638 21.8051 60.7944L21.8267 61.4853H22.0966V49.3082H21.8159L21.7943 49.9991C21.7727 51.2298 21.7511 52.3957 21.3947 53.4536C21.1355 54.2525 20.3689 54.965 19.6346 55.1269C19.4402 55.1809 18.6087 55.2564 18.058 55.2456C18.058 55.1701 18.058 39.4952 18.058 39.4197C18.6087 39.3765 19.1702 39.4197 19.2026 39.4197C20.9088 39.6032 23.1117 40.2617 24.008 42.3884C24.6127 43.7162 24.6775 45.3139 24.7315 46.8577L24.7639 47.6673H25.0122V38.9231H12.0324V38.9663V39.3981H14.2461C14.2461 39.3981 14.2785 39.4089 14.3109 39.4197C14.3109 39.4845 14.3109 71.4386 14.3109 71.5142C14.2353 71.5142 12 71.5142 12 71.5142V72H25.023V63.4825H24.7639L24.7315 64.2813Z" fill="white"/>
<path d="M45.5402 64.2597C45.4862 65.8035 45.4214 67.4012 44.8167 68.729C44.1364 70.3375 42.5706 71.2551 40.0113 71.525C39.9789 71.5358 39.4174 71.5682 38.8667 71.525C38.8667 71.4494 38.8667 39.4413 38.8667 39.3657C38.9423 39.3657 41.1884 39.3657 41.1884 39.3657V38.9231H41.156H32.8411V39.3657C32.8411 39.3657 35.098 39.3657 35.1196 39.3657C35.1196 39.4413 35.1196 71.4494 35.1196 71.525C35.044 71.525 32.8087 71.525 32.8087 71.525V72H45.8317V63.4501H45.5726L45.5402 64.2597Z" fill="white"/>
<path d="M35.3788 30.6107C35.8108 30.4596 36.1455 30.2221 36.3939 29.8875C36.6315 29.5636 36.7611 29.1426 36.7611 28.6352C36.7611 28.2574 36.6855 27.9335 36.5235 27.6636C36.3615 27.3937 36.1563 27.1778 35.8756 27.0051C35.6596 26.8648 35.4112 26.7676 35.1413 26.6812C35.4868 26.5409 35.7784 26.3466 35.9836 26.0875C36.2103 25.8176 36.3183 25.483 36.3183 25.0835C36.3183 24.7597 36.2535 24.4682 36.1239 24.2307C35.9944 23.9932 35.8216 23.7881 35.584 23.6262C35.3572 23.4642 35.0765 23.3455 34.7633 23.2591C34.4502 23.1728 34.1046 23.1404 33.7159 23.1404H31.1566V30.8267H33.867C34.4394 30.8375 34.9469 30.7619 35.3788 30.6107ZM32.7332 24.4034H33.5755C33.921 24.4034 34.191 24.479 34.3854 24.6409C34.5797 24.8029 34.6769 25.0188 34.6769 25.3102C34.6769 25.5046 34.6337 25.6665 34.5366 25.8068C34.4502 25.9472 34.3206 26.0551 34.1478 26.1307C33.9858 26.2063 33.7915 26.2386 33.5647 26.2386H32.7332V24.4034ZM32.7332 29.5852V27.3722H33.7483C33.9426 27.3722 34.1262 27.3937 34.299 27.4369C34.4718 27.4801 34.6121 27.5449 34.7417 27.6312C34.8713 27.7176 34.9685 27.8256 35.0333 27.9551C35.0981 28.0954 35.1413 28.2574 35.1413 28.4409C35.1413 28.7 35.0765 28.9159 34.9577 29.0886C34.8389 29.2613 34.6769 29.3801 34.461 29.4664C34.245 29.5528 34.0074 29.5852 33.7375 29.5852H32.7332Z" fill="white"/>
<path d="M39.6766 30.8374H40.5837C41.1884 30.8374 41.7067 30.7402 42.1387 30.5459C42.5706 30.3516 42.8946 30.0601 43.1214 29.6931C43.3481 29.3261 43.4561 28.8834 43.4561 28.3869C43.4561 27.8795 43.3481 27.4477 43.1214 27.0806C42.8946 26.7136 42.5706 26.4329 42.1387 26.2386C41.7067 26.0443 41.1884 25.9471 40.5837 25.9471H39.6766V23.1511H38.1108V30.8374H39.0719H39.6766ZM39.6766 27.2857H40.5837C40.8645 27.2857 41.102 27.3289 41.3072 27.4045C41.5124 27.48 41.6636 27.6096 41.7715 27.7715C41.8795 27.9335 41.9335 28.1386 41.9335 28.3761C41.9335 28.6136 41.8795 28.8187 41.7715 28.9914C41.6636 29.1641 41.5124 29.2829 41.3072 29.3692C41.102 29.4556 40.8645 29.4988 40.5837 29.4988H39.6766V27.2857Z" fill="white"/>
<path d="M45.9398 23.1511H44.3308V30.8374H45.9398V23.1511Z" fill="white"/>
<defs>
<linearGradient id="paint0_linear" x1="12" y1="12.5" x2="77.5" y2="97.5" gradientUnits="userSpaceOnUse">
<stop stop-color="#649EE1"/>
<stop offset="0.59375" stop-color="#8487C4"/>
<stop offset="1" stop-color="#BB48F1"/>
</linearGradient>
<radialGradient id="paint1_radial" cx="0" cy="0" r="1" gradientUnits="userSpaceOnUse" gradientTransform="translate(94.8771 12.9655) rotate(90) scale(50.119)">
<stop offset="0.0916043" stop-color="#B1E3FF"/>
<stop offset="1" stop-color="#C6FFF1" stop-opacity="0"/>
</radialGradient>
<radialGradient id="paint2_radial" cx="0" cy="0" r="1" gradientUnits="userSpaceOnUse" gradientTransform="translate(9 19) rotate(90.1351) scale(66.7334)">
<stop stop-color="#C6FFF1"/>
<stop offset="1" stop-color="#649EE1" stop-opacity="0"/>
</radialGradient>
<radialGradient id="paint3_radial" cx="0" cy="0" r="1" gradientUnits="userSpaceOnUse" gradientTransform="translate(19 3) rotate(90.1351) scale(66.7334)">
<stop stop-color="#C6FFF1"/>
<stop offset="1" stop-color="#649EE1" stop-opacity="0"/>
</radialGradient>
<radialGradient id="paint4_radial" cx="0" cy="0" r="1" gradientUnits="userSpaceOnUse" gradientTransform="translate(32.8618 110.211) rotate(90) scale(56.3839)">
<stop stop-color="#FFD2B1"/>
<stop offset="1" stop-color="#EEABFF" stop-opacity="0"/>
</radialGradient>
</defs>
</svg>
