<svg width="32" height="32" viewBox="0 0 32 32" fill="none" xmlns="http://www.w3.org/2000/svg">
<path d="M26.2376 31.0033H5.76275C3.13154 31.0033 1 28.8717 1 26.2405V5.76275C1 3.13154 3.13154 1 5.76275 1H26.2376C28.8689 1 31.0004 3.13154 31.0004 5.76275V26.2376C31.0033 28.8688 28.8689 31.0033 26.2376 31.0033Z" stroke="#00467F" stroke-miterlimit="10"/>
<path d="M16.0013 24.1871C20.5219 24.1871 24.1866 20.5224 24.1866 16.0017C24.1866 11.4811 20.5219 7.81641 16.0013 7.81641C11.4806 7.81641 7.81592 11.4811 7.81592 16.0017C7.81592 20.5224 11.4806 24.1871 16.0013 24.1871Z" stroke="#00467F" stroke-miterlimit="10"/>
<path d="M25.1426 8.59905C26.1029 8.59905 26.8813 7.82059 26.8813 6.86032C26.8813 5.90004 26.1029 5.12158 25.1426 5.12158C24.1823 5.12158 23.4039 5.90004 23.4039 6.86032C23.4039 7.82059 24.1823 8.59905 25.1426 8.59905Z" stroke="#00467F" stroke-miterlimit="10"/>
</svg>
