<svg width="32" height="32" viewBox="0 0 32 32" fill="none" xmlns="http://www.w3.org/2000/svg">
<path d="M26.2376 31.0033H5.76275C3.13154 31.0033 1 28.8717 1 26.2405V5.76275C1 3.13154 3.13154 1 5.76275 1H26.2376C28.8689 1 31.0004 3.13154 31.0004 5.76275V26.2376C31.0033 28.8688 28.8689 31.0033 26.2376 31.0033Z" stroke="white" stroke-miterlimit="10"/>
<path d="M16.0013 24.1871C20.5219 24.1871 24.1866 20.5224 24.1866 16.0017C24.1866 11.4811 20.5219 7.81641 16.0013 7.81641C11.4806 7.81641 7.81592 11.4811 7.81592 16.0017C7.81592 20.5224 11.4806 24.1871 16.0013 24.1871Z" stroke="white" stroke-miterlimit="10"/>
<path d="M25.1425 8.59856C26.1028 8.59856 26.8813 7.82011 26.8813 6.85983C26.8813 5.89955 26.1028 5.12109 25.1425 5.12109C24.1823 5.12109 23.4038 5.89955 23.4038 6.85983C23.4038 7.82011 24.1823 8.59856 25.1425 8.59856Z" stroke="white" stroke-miterlimit="10"/>
</svg>
