<svg width="114" height="68" viewBox="0 0 114 68" fill="none" xmlns="http://www.w3.org/2000/svg">
<path d="M42.8303 52.5902C42.8303 52.4103 42.698 52.227 42.4027 52.227L42.0055 52.1863C41.7713 52.1422 41.1875 52.0302 40.3865 51.2359L37.5523 47.9571C37.5523 47.9571 37.3147 47.6686 37.1586 47.4785C38.5197 46.3652 39.1272 45.3368 39.1272 44.0877C39.1272 43.0626 38.5197 42.1971 37.9562 41.8271C37.0398 41.2264 35.9231 41.1449 34.9489 41.1449L32.7461 41.189L32.1249 41.1721L30.6043 41.1449C30.4584 41.1449 30.0205 41.1449 30.0205 41.5217C30.0205 41.6642 30.085 41.8984 30.5263 41.8984L31.0761 41.9358C31.4495 42.0104 31.5343 42.1224 31.5615 42.5705C31.5615 42.5739 31.5921 45.7407 31.5921 45.7407V48.3848L31.5174 51.555C31.4529 51.9928 31.3884 52.149 31.2594 52.1727C31.2526 52.1727 30.7435 52.227 30.7435 52.227C30.2989 52.227 30.2513 52.4816 30.2513 52.5902C30.2513 52.709 30.3056 52.9806 30.8046 52.9806L32.7121 52.9364L33.2111 52.95L35.0066 52.9806C35.509 52.9806 35.5599 52.709 35.5599 52.5902C35.5599 52.4103 35.4275 52.227 35.1322 52.227L34.3957 52.1693C34.1445 52.1388 34.0495 52.037 33.9952 51.5584C33.9952 51.555 33.9171 48.3712 33.9171 48.3712C33.9171 48.3712 33.9171 48.3271 33.9171 48.2863C34.114 48.2897 35.156 48.3135 35.156 48.3135C35.2612 48.3373 36.0012 49.3216 36.0012 49.3216L36.7954 50.3942C37.7288 51.6263 38.3262 52.3153 39.0186 52.6717C39.4734 52.9093 39.9079 52.984 40.8006 52.984H42.2839C42.7353 52.9806 42.8303 52.7667 42.8303 52.5902ZM35.9808 46.8981C35.7602 47.0475 35.621 47.1052 35.01 47.1052L33.8967 46.966L33.9239 46.9253V42.3634C33.9307 42.3804 34.6502 42.3295 34.6502 42.3295C35.4479 42.3295 36.7988 42.859 36.7988 44.8378C36.8022 46.1242 36.2897 46.6775 35.9808 46.8981ZM65.6904 53.0247C66.281 53.0247 66.6069 53.0247 66.7664 52.4579C66.8513 52.1354 66.9769 51.0832 66.9769 50.7268C66.9769 50.5978 66.9769 50.2143 66.6137 50.2143C66.2844 50.2143 66.2301 50.5096 66.203 50.6352C66.091 51.2597 65.9111 51.4532 65.6395 51.572C65.2797 51.7315 64.645 51.7315 64.2683 51.7315C62.7239 51.7315 62.6594 51.5346 62.6356 50.6996L62.6322 48.9991L62.6356 48.378C62.6356 48.378 62.6356 47.448 62.6356 47.2884C62.8902 47.2918 64.679 47.3292 64.679 47.3292C65.1847 47.3801 65.2967 47.5532 65.3442 47.7365L65.3884 48.0963L65.3985 48.2422C65.3985 48.4425 65.5513 48.5952 65.7787 48.5952C65.9552 48.5952 66.1622 48.5036 66.1622 48.0657L66.2267 47.0746C66.2233 47.078 66.3286 46.1582 66.3286 46.1582L66.3489 45.9647C66.3489 45.7543 66.203 45.6049 65.9959 45.6049L65.575 45.8663C65.4834 45.9681 65.2764 46.002 64.9743 46.0258C64.9743 46.0258 62.9852 46.0496 62.6289 46.0529C62.6289 45.8459 62.6289 42.601 62.6289 42.4245C62.8631 42.4313 64.6858 42.4822 64.6858 42.4822C65.4087 42.5637 65.4698 42.713 65.5343 42.8726C65.5377 42.876 65.609 43.324 65.609 43.324C65.609 43.7415 65.9043 43.7754 65.9925 43.7754C66.0876 43.7754 66.3116 43.7415 66.3863 43.4224C66.3863 43.4088 66.4474 42.6995 66.4474 42.6995L66.4677 42.4042C66.4677 42.3974 66.5662 41.5929 66.5662 41.5929L66.5933 41.4063C66.5933 41.1245 66.41 41.0261 66.2573 41.0261L66.0333 41.0736C65.9518 41.0974 65.3137 41.1788 65.3137 41.1788L61.4307 41.1958L60.4566 41.1653C60.4464 41.1653 59.1837 41.1517 59.1837 41.1517C59.0412 41.1517 58.5999 41.1517 58.5999 41.5284C58.5999 41.671 58.6644 41.9052 59.1056 41.9052L59.6589 41.9425C60.0323 42.0172 60.1171 42.1292 60.1443 42.5773C60.1443 42.5807 60.1748 45.7475 60.1748 45.7475V48.3916L60.1002 51.5618C60.0357 51.9996 59.9712 52.1558 59.8388 52.1795C59.8354 52.1795 59.3229 52.2338 59.3229 52.2338C58.8816 52.2338 58.8307 52.4884 58.8307 52.597C58.8307 52.7158 58.885 52.9874 59.3874 52.9874L60.4667 52.9602C60.4769 52.9602 61.356 52.9466 61.356 52.9466L63.4265 53.0009L65.6904 53.0247ZM113.081 41.1449L111.825 41.1754L111.55 41.189L111.007 41.1721L109.663 41.1449C109.469 41.1449 109.011 41.1449 109.011 41.5217C109.011 41.6337 109.058 41.8984 109.503 41.8984L110.246 41.9731C110.46 42.0613 110.603 42.1835 110.623 43.1034C110.623 43.1068 110.728 47.784 110.766 49.3284C110.44 49.0025 102.84 41.4334 102.84 41.4334C102.837 41.43 102.691 41.2807 102.691 41.2807L102.087 40.8971C101.791 40.8971 101.645 41.1483 101.645 41.6472L101.503 50.5333C101.489 51.7654 101.421 52.0981 101.191 52.166L100.556 52.2338C100.498 52.2338 100.461 52.2474 100.417 52.2576C100.376 52.2508 100.342 52.2338 100.291 52.2338L99.6802 52.1795C99.4935 52.1354 99.0795 52.0404 98.4821 50.6827L96.0145 44.8039L94.6059 41.447C94.4735 41.1551 94.3241 40.8224 93.9949 40.8224C93.6555 40.8224 93.5163 41.1551 93.3364 41.5726C93.3364 41.576 89.4161 51.0051 89.4161 51.0051C89.097 51.762 88.8459 52.1388 88.279 52.2101L87.8276 52.2372C87.7767 52.2372 87.7461 52.2542 87.7088 52.261C87.6613 52.2508 87.6273 52.2372 87.5662 52.2372L86.7991 52.1795C86.5072 52.1422 86.4258 52.0404 86.3783 51.6568L86.3205 48.395V45.7509L86.3511 42.5841C86.3816 42.0681 86.4971 41.9901 86.7313 41.9493L87.1589 41.9086C87.6002 41.9086 87.6511 41.6337 87.6511 41.5149C87.6511 41.2739 87.461 41.1551 87.0809 41.1551L85.1767 41.1992L83.1436 41.1551C82.9772 41.1551 82.5258 41.1551 82.5258 41.5149C82.5258 41.6303 82.5733 41.9086 83.018 41.9086L83.5203 41.9595C83.6866 41.9969 83.8394 42.0715 83.8733 42.5841L83.9039 45.7509V48.395C83.9039 49.8647 83.9039 51.0255 83.8292 51.6398C83.7783 52.1049 83.6866 52.1592 83.5678 52.1829C83.5644 52.1829 83.0519 52.2372 83.0519 52.2372C82.6073 52.2372 82.5597 52.4918 82.5597 52.6004C82.5597 52.7192 82.6141 52.9907 83.113 52.9907L85.0783 52.9466L85.7911 52.9602L87.5153 52.9874C87.59 52.9874 87.6341 52.9704 87.6884 52.9568C87.7597 52.9738 87.8412 52.9874 87.9362 52.9874L89.4432 52.9534L89.7793 52.9466L91.4357 52.9907C91.8769 52.9907 91.9448 52.7464 91.9448 52.6004C91.9448 52.3594 91.7819 52.2372 91.4662 52.2372H91.232C90.8485 52.2372 90.8485 52.115 90.8485 52.0132L91.0657 51.1918C91.0657 51.1884 91.8599 49.1756 91.8973 49.0738H95.3085V49.0772C95.3085 49.1926 96.4897 52.2067 96.4897 52.2067C96.2622 52.2508 96.1163 52.3764 96.1163 52.6004C96.1163 52.9263 96.4659 52.9432 96.7476 52.9602C96.8223 52.9636 99.7787 52.9907 99.7787 52.9907C100.006 52.9907 100.203 52.984 100.366 52.9568C100.474 52.984 100.59 52.9907 100.654 52.9907L102.087 52.9568L102.338 52.95L102.766 52.9636L104.276 52.9941C104.677 52.9941 104.877 52.8652 104.877 52.6038C104.877 52.468 104.809 52.2406 104.368 52.2406L103.634 52.149C103.4 52.0675 103.275 51.5957 103.251 50.703C103.251 50.703 103.122 45.9206 103.095 44.9702C103.224 45.1026 106.431 48.361 106.431 48.361L108.543 50.3908L111.044 52.7803C111.241 52.967 111.475 53.174 111.74 53.174C112.035 53.174 112.185 52.9364 112.185 52.468L112.358 42.9948C112.375 42.1156 112.517 42.0138 112.758 41.9459C112.751 41.9493 113.162 41.912 113.162 41.912C113.647 41.912 113.685 41.6235 113.685 41.5352C113.681 41.1449 113.244 41.1449 113.081 41.1449ZM92.3826 47.8281C92.6101 47.2443 93.2991 45.4725 93.5944 44.719C93.8863 45.4963 94.5346 47.2104 94.7688 47.8281H92.3826ZM22.2681 40.9345C17.6689 40.9345 15.5747 44.1115 15.5747 47.061C15.5747 50.0106 17.6214 53.191 22.112 53.191C26.0595 53.191 28.8224 50.5571 28.8224 46.7895C28.819 43.2323 26.2461 40.9345 22.2681 40.9345ZM22.7671 51.9589C20.0415 51.9589 18.212 49.8036 18.212 46.5994C18.212 42.7164 20.4692 42.1394 21.8133 42.1394C24.3657 42.1394 26.1477 44.2846 26.1477 47.3495C26.1477 51.5075 23.7819 51.9589 22.7671 51.9589ZM58.067 41.1449L57.008 41.1754L56.7704 41.189L56.5328 41.1788L55.1446 41.1449C54.9952 41.1449 54.5438 41.1449 54.5438 41.5217C54.5438 41.6948 54.6762 41.8984 55.0529 41.8984C55.5621 41.8984 55.5621 42.041 55.5621 42.1055L55.4195 42.9065L55.036 44.1352C55.036 44.1352 53.7971 48.154 53.5154 49.0704C53.1148 48.1404 50.4538 41.9493 50.4538 41.9493C50.2603 41.4843 50.1415 41.2026 49.8224 41.2026C49.4932 41.2026 49.3371 41.5488 49.2047 41.8984C49.2047 41.8984 47.0731 47.4072 46.3943 49.1553C45.8987 47.6279 44.8126 44.1997 44.5885 43.3613C44.5885 43.3579 44.4833 42.988 44.4833 42.988L44.2491 42.041C44.2593 41.9425 44.2763 41.9358 44.2763 41.9358C44.3 41.9256 44.5716 41.895 44.5716 41.895C45.006 41.895 45.0977 41.688 45.0977 41.5183C45.0977 41.3791 45.023 41.1415 44.5274 41.1415L43.0272 41.1754L42.7964 41.1856L42.5147 41.1754L40.9839 41.1415C40.5935 41.1415 40.3967 41.2671 40.3967 41.5183C40.3967 41.688 40.4815 41.895 40.8888 41.895L41.3878 41.9969C41.5745 42.1224 41.7476 42.5908 41.863 42.9337L45.1757 52.4748C45.3319 52.9059 45.4337 53.1944 45.7629 53.1944C46.0956 53.1944 46.2144 52.9432 46.5063 52.3357C47.1444 51.0187 48.8347 46.7284 49.3948 45.2892C49.7715 46.1616 52.4292 52.3119 52.4292 52.3119C52.6702 52.8821 52.8026 53.1944 53.1352 53.1944C53.5323 53.1944 53.6511 52.8278 53.8174 52.3221L56.9367 43.4122L57.0657 43.0728C57.2796 42.4924 57.4493 42.041 57.6699 41.9595C57.6665 41.9595 58.1349 41.9018 58.1349 41.9018C58.4743 41.9018 58.5931 41.6914 58.5931 41.5081C58.5897 41.3689 58.5218 41.1449 58.067 41.1449ZM75.812 53.191C76.5588 53.191 78.429 53.1197 79.6848 52.4884C80.0039 52.3085 80.0209 52.1524 80.0209 51.7315V50.0819L80.0378 48.2897C80.0548 47.7704 80.2143 47.6992 80.435 47.6618L80.8117 47.6211C81.141 47.6211 81.2564 47.4276 81.2564 47.2579C81.2564 47.078 81.1613 46.8642 80.7031 46.8642L78.877 46.9083L76.6097 46.8642C76.2329 46.8642 76.0394 46.9965 76.0394 47.2579C76.0394 47.3428 76.0768 47.6211 76.5146 47.6211L77.0679 47.6584C77.448 47.7365 77.5397 47.8553 77.5533 48.2863L77.5668 50.0513V51.4633C77.5668 51.7077 77.4956 51.762 77.4141 51.7994C77.0849 51.9419 76.5655 51.9419 76.1854 51.9419C73.1306 51.9419 70.9922 49.7187 70.9922 46.5383C70.9922 44.9193 71.4335 43.7788 72.3397 43.0457C73.3071 42.2752 74.3254 42.1666 75.2825 42.1666C77.0509 42.1666 78.2219 42.8861 78.5919 43.2663C78.9279 43.6125 79.006 44.0062 79.0569 44.3762C79.101 44.7292 79.3251 44.7801 79.454 44.7801C79.729 44.7801 79.8647 44.5934 79.8647 44.2235L79.9598 41.9561L79.9767 41.7593C79.9767 41.5828 79.9021 41.3655 79.5355 41.3418C79.5253 41.3384 78.3271 41.1788 78.3271 41.1788C77.9775 41.1144 76.5859 40.9379 75.5201 40.9379C74.2677 40.9379 72.798 41.0159 71.1959 41.9425C69.4207 42.9778 68.3583 44.8921 68.3583 47.0644C68.3549 51.5821 72.2074 53.191 75.812 53.191ZM13.8335 41.1449L12.581 41.1754L12.3027 41.189L11.7596 41.1721L10.4155 41.1449C10.222 41.1449 9.76718 41.1449 9.76718 41.5217C9.76718 41.6337 9.8147 41.8984 10.2593 41.8984L10.9993 41.9731C11.2165 42.0613 11.3591 42.1869 11.376 43.1034C11.376 43.1068 11.4847 47.7874 11.5186 49.3284C11.1928 48.9991 3.58969 41.4334 3.58969 41.4334C3.58629 41.43 3.44713 41.2807 3.44713 41.2807L2.83617 40.8937C2.54087 40.8937 2.39152 41.1449 2.39152 41.6439L2.24897 50.5299C2.23539 51.762 2.1709 52.0947 1.9367 52.1626L1.30198 52.2304C0.857334 52.2304 0.809814 52.485 0.809814 52.5936C0.809814 52.984 1.23409 52.984 1.39362 52.984L2.82598 52.95L3.08055 52.9432L3.50822 52.9568L5.01865 52.9874C5.41917 52.9874 5.61943 52.8584 5.61943 52.597C5.61943 52.4612 5.55494 52.2338 5.1103 52.2338L4.37715 52.1422C4.14294 52.0607 4.01736 51.5889 3.9936 50.6963C3.9936 50.6963 3.86462 45.9172 3.83746 44.9634C3.92232 45.0517 7.17738 48.3542 7.17738 48.3542L9.25804 50.3534L11.7901 52.7701C11.9938 52.967 12.2212 53.1639 12.486 53.1639C12.7812 53.1639 12.9306 52.9263 12.9306 52.4579L13.1037 42.9846C13.1173 42.1055 13.2666 42.0036 13.5042 41.9358C13.5042 41.9391 13.9081 41.9018 13.9081 41.9018C14.3935 41.9018 14.4308 41.6133 14.4308 41.5251C14.4342 41.1449 13.9964 41.1449 13.8335 41.1449ZM33.5845 58.6795V59.1852C34.6469 59.2667 34.7962 59.3651 34.7962 60.6278V65.8039C34.7962 67.1209 34.6502 67.2058 33.5845 67.3042V67.793H38.1327V67.3042C36.8633 67.2058 36.7479 67.1209 36.7479 65.8039V63.5875H37.9291C39.2392 63.5875 39.3852 63.6995 39.5447 64.6533H40.0708V61.8666H39.5447C39.3716 62.7661 39.2392 62.8883 37.9291 62.8883H36.7479V59.7894C36.7479 59.3244 36.8056 59.3006 37.3147 59.3006H38.0445C38.8625 59.3006 39.2528 59.399 39.5617 59.7079C39.8095 59.9761 39.986 60.3834 40.1455 60.9129L40.6546 60.8144C40.58 59.9998 40.5087 58.9205 40.4917 58.6829H33.5845V58.6795ZM74.305 59.562C74.305 60.0915 74.787 60.5429 75.3267 60.5429C75.924 60.5429 76.3789 60.0949 76.3789 59.562C76.3789 59.0019 75.924 58.5776 75.3402 58.5776C74.787 58.581 74.305 59.0019 74.305 59.562ZM48.5564 63.8081C47.8131 63.4857 47.477 63.1632 47.477 62.7288C47.477 62.2807 47.8402 61.9719 48.2204 61.9719C48.906 61.9719 49.371 62.5455 49.7681 63.4008L50.206 63.2753C50.1788 62.9935 50.0023 61.999 49.8564 61.6766C49.5204 61.534 49.1266 61.4118 48.458 61.4254C46.9272 61.4254 46.0107 62.3249 46.0107 63.4144C46.0107 64.6194 47.1919 65.1692 47.8606 65.4883C48.7634 65.8956 48.9705 66.2452 48.9705 66.6525C48.9705 67.0734 48.6514 67.4094 48.1695 67.4094C47.2802 67.4094 46.6081 66.4421 46.289 65.5596L45.8512 65.6037C45.8648 66.2757 45.9971 67.2567 46.0854 67.4807C46.3773 67.6877 47.1478 67.9559 47.9217 67.9559C49.147 67.9559 50.5318 67.2703 50.5318 65.882C50.525 64.7891 49.7376 64.3003 48.5564 63.8081ZM67.7439 58.4826H67.7304C64.3938 58.4826 62.6153 60.8348 62.6153 63.2481C62.6153 65.9431 64.6416 68 67.5573 68C70.2964 68 72.557 66.1637 72.557 63.1361C72.5536 60.3596 70.3813 58.4826 67.7439 58.4826ZM67.8152 67.4128C65.9484 67.4128 64.8419 65.3797 64.8419 62.9833C64.8419 60.5599 65.9925 59.0596 67.452 59.0596H67.469C69.1458 59.0596 70.3236 60.7398 70.3236 63.5332C70.3236 66.1094 69.2001 67.4128 67.8152 67.4128ZM76.3755 66.1943V61.4254C75.5575 61.6494 74.5935 61.8327 73.7212 61.9277V62.335C74.4204 62.4471 74.5222 62.4878 74.5222 63.4144V66.1909C74.5222 67.1854 74.434 67.2397 73.5888 67.3381V67.7862H77.3225V67.3381C76.4467 67.2295 76.3755 67.1616 76.3755 66.1943ZM80.5572 66.2486V57.9361C79.7425 58.1568 78.6632 58.3434 77.8316 58.4385V58.8458C78.636 58.9408 78.7073 58.985 78.7073 59.8233V66.2452C78.7073 67.1413 78.619 67.2092 77.7603 67.3381V67.7862H81.5347V67.3381C80.6488 67.2431 80.5572 67.1888 80.5572 66.2486ZM42.1108 59.562C42.1108 60.0915 42.5927 60.5429 43.129 60.5429C43.7264 60.5429 44.1812 60.0949 44.1812 59.562C44.1812 59.0019 43.7264 58.5776 43.146 58.5776C42.5927 58.581 42.1108 59.0019 42.1108 59.562ZM57.7276 66.3199V63.7538C57.7276 62.2129 56.9843 61.4288 55.7148 61.4288C55.002 61.4288 54.2723 61.8497 53.7767 62.3418V57.9395C52.901 58.15 51.8658 58.3468 51.0919 58.4419V58.8492C51.8488 58.9306 51.9065 58.9306 51.9065 59.786V66.3199C51.9065 67.2024 51.8216 67.2601 50.9901 67.3449V67.793H54.4454V67.3449C53.8344 67.2465 53.7767 67.1481 53.7767 66.3776V62.8578C54.0822 62.5659 54.4759 62.464 54.8255 62.464C55.3958 62.464 55.8777 62.8272 55.8777 63.9066V66.3742C55.8777 67.1447 55.8336 67.2431 55.131 67.3415V67.7896H58.5728V67.3415C57.8158 67.2126 57.7276 67.2126 57.7276 66.3199ZM44.1846 66.1943V61.4254C43.3666 61.6494 42.4027 61.8327 41.527 61.9277V62.335C42.2296 62.4471 42.3314 62.4878 42.3314 63.4144V66.1909C42.3314 67.1854 42.2431 67.2397 41.398 67.3381V67.7862H45.1282V67.3381C44.2559 67.2295 44.1846 67.1616 44.1846 66.1943ZM82.9569 58.2756H82.9501C82.2916 58.2756 81.7689 58.7847 81.7689 59.4194C81.7689 60.0677 82.2916 60.5701 82.9501 60.5701C83.612 60.5701 84.1211 60.0677 84.1211 59.4194C84.1211 58.7847 83.612 58.2756 82.9569 58.2756ZM82.9569 60.3325C82.4409 60.3325 82.0642 59.9285 82.0642 59.4194C82.0642 58.9171 82.4409 58.503 82.9433 58.503H82.9501C83.4592 58.503 83.8292 58.9171 83.8292 59.4194C83.8292 59.9285 83.4592 60.3392 82.9569 60.3325ZM83.2148 59.4534V59.4398C83.354 59.399 83.4524 59.3006 83.4524 59.1682C83.4524 59.0664 83.4049 58.9714 83.3404 58.9239C83.2556 58.8661 83.1605 58.8322 82.9433 58.8322C82.7566 58.8322 82.6073 58.8526 82.5054 58.8729V60.0134H82.7702V59.5586H82.8958C83.0417 59.5586 83.113 59.6163 83.1334 59.7419C83.1673 59.8742 83.1911 59.9727 83.225 60.0134H83.5101C83.483 59.9761 83.4626 59.9082 83.4253 59.7351C83.3879 59.5789 83.3268 59.4873 83.2148 59.4534ZM82.8992 59.3685H82.7736V59.0427C82.8007 59.0325 82.8483 59.0291 82.9195 59.0291C83.0859 59.0291 83.1639 59.1004 83.1639 59.2022C83.1673 59.321 83.0485 59.3685 82.8992 59.3685Z" fill="white"/>
<path d="M67.3228 24.7914C67.1531 30.1781 62.649 34.4039 57.2623 34.2342C51.8757 34.0678 47.6465 29.5637 47.8162 24.1771C48.0742 15.9257 55.8062 13.6142 57.4321 0C59.9336 11.3435 67.5604 17.1408 67.3228 24.7914Z" fill="white"/>
<path d="M57.4355 0.00363159C55.8096 13.6179 48.0776 15.9259 47.8162 24.1807C47.6465 29.5673 51.8757 34.0715 57.2623 34.2378C62.649 34.4075 67.1531 30.1817 67.3228 24.7951C67.5604 17.1411 59.9336 11.3437 57.4355 0.00363159Z" fill="white"/>
</svg>
